<?xml version="1.0" standalone="no"?>
<!DOCTYPE svg PUBLIC "-//W3C//DTD SVG 20010904//EN"
 "http://www.w3.org/TR/2001/REC-SVG-20010904/DTD/svg10.dtd">
<svg version="1.0" xmlns="http://www.w3.org/2000/svg"
 width="33.000000pt" height="33.000000pt" viewBox="0 0 33.000000 33.000000"
 preserveAspectRatio="xMidYMid meet">

<g transform="translate(0.000000,33.000000) scale(0.100000,-0.100000)"
fill="#000000" stroke="none">
<path d="M98 303 c6 -2 18 -2 25 0 6 3 1 5 -13 5 -14 0 -19 -2 -12 -5z"/>
<path d="M180 306 c0 -2 7 -7 16 -10 8 -3 12 -2 9 4 -6 10 -25 14 -25 6z"/>
<path d="M58 293 c7 -3 16 -2 19 1 4 3 -2 6 -13 5 -11 0 -14 -3 -6 -6z"/>
<path d="M240 275 c14 -8 30 -14 35 -14 6 0 -1 6 -15 14 -14 8 -29 14 -35 14
-5 0 1 -6 15 -14z"/>
<path d="M21 232 c-5 -15 -9 -48 -8 -75 2 -39 7 -51 32 -72 17 -13 33 -24 37
-25 15 0 -3 45 -29 72 -39 40 -21 46 25 7 32 -27 37 -35 27 -46 -20 -19 -12
-43 21 -63 29 -18 30 -18 92 8 34 14 62 30 62 34 0 5 -4 7 -8 4 -4 -2 -32 -14
-61 -26 -44 -17 -52 -18 -48 -5 8 20 -9 20 -21 -1 -7 -13 -10 -13 -21 -1 -9
12 -7 16 14 21 14 4 30 4 36 1 8 -5 92 20 108 32 2 1 -2 9 -9 18 -10 12 -10
15 3 15 10 0 13 6 10 19 -3 13 2 21 17 26 12 4 20 9 17 11 -2 2 -23 -3 -47
-11 -24 -8 -45 -13 -47 -11 -2 2 19 12 46 22 39 14 48 21 40 30 -6 7 -8 18 -5
23 4 5 1 13 -5 17 -7 4 -9 3 -6 -3 4 -6 -10 -13 -34 -17 -61 -10 -109 -33
-109 -52 0 -13 6 -15 31 -10 27 5 29 4 15 -10 -9 -8 -20 -12 -26 -9 -12 7 -40
-18 -40 -35 0 -7 -15 1 -33 16 -18 16 -43 36 -56 45 -13 8 -22 21 -20 28 3 9
12 6 32 -9 15 -12 27 -18 27 -13 0 4 4 2 9 -6 5 -8 22 -15 38 -17 15 -1 22 0
15 3 -6 3 -10 9 -7 13 3 5 0 12 -6 16 -8 4 -9 3 -5 -4 4 -7 5 -12 2 -12 -13 0
-96 45 -96 52 0 13 12 9 48 -12 19 -12 31 -16 28 -11 -3 5 -21 18 -40 29 l-34
20 -11 -26z m269 -11 c0 -9 -75 -31 -106 -31 -31 0 -2 18 46 28 61 13 60 13
60 3z m-20 -70 c0 -12 -113 -42 -123 -32 -5 5 18 15 50 23 75 20 73 19 73 9z
m-211 -38 c12 -14 19 -28 17 -30 -8 -8 -56 29 -56 43 0 22 17 16 39 -13z m191
-1 c0 -5 -26 -15 -57 -22 -32 -7 -64 -15 -72 -18 -9 -3 -12 0 -9 9 2 7 18 15
34 16 16 2 43 7 59 12 40 12 45 13 45 3z"/>
</g>
</svg>
